<svg xmlns="http://www.w3.org/2000/svg" viewBox="0 0 20 20">
  <style>
    path {
      fill: #000;
    }
    @media (prefers-color-scheme: dark) {
      path {
        fill: #fff;
      }
    }
  </style>
  <path
    d="M7.22201 8.206V12.1L8.12801 12.364V12.766H5.23001V12.364L6.19001 12.1V8.434C6.12601 8.378 6.01201 8.304 5.84801 8.212C5.68801 8.12 5.47201 8.01 5.20001 7.882V7.684L6.78401 7H6.96401L7.22201 8.206ZM10.852 8.614V12.1L11.758 12.364V12.766H8.90801V12.364L9.82001 12.1V9.034C9.82001 8.798 9.77401 8.604 9.68201 8.452C9.59401 8.3 9.46001 8.188 9.28001 8.116C9.10401 8.044 8.88201 8.008 8.61401 8.008C8.34601 8.008 8.07801 8.046 7.81001 8.122C7.54601 8.198 7.33201 8.296 7.16801 8.416L7.01201 8.164C7.28801 7.924 7.52401 7.73 7.72001 7.582C7.91601 7.43 8.09401 7.314 8.25401 7.234C8.41801 7.15 8.57601 7.094 8.72801 7.066C8.88401 7.034 9.05601 7.018 9.24401 7.018C9.62401 7.018 9.93201 7.082 10.168 7.21C10.404 7.334 10.576 7.516 10.684 7.756C10.796 7.992 10.852 8.278 10.852 8.614ZM14.482 8.83V12.1L15.448 12.364V12.766H12.538V12.364L13.45 12.1V9.04C13.45 8.8 13.404 8.606 13.312 8.458C13.22 8.306 13.084 8.194 12.904 8.122C12.724 8.046 12.5 8.008 12.232 8.008C11.964 8.008 11.696 8.048 11.428 8.128C11.16 8.204 10.944 8.302 10.78 8.422L10.624 8.17C10.9 7.93 11.138 7.734 11.338 7.582C11.538 7.43 11.718 7.314 11.878 7.234C12.038 7.15 12.196 7.094 12.352 7.066C12.508 7.034 12.68 7.018 12.868 7.018C13.432 7.018 13.842 7.172 14.098 7.48C14.354 7.788 14.482 8.238 14.482 8.83Z"
  />
</svg>
